<svg width="36" height="36" viewBox="0 0 36 36" fill="none" xmlns="http://www.w3.org/2000/svg">
<path d="M29.4878 14.0623L18.9878 4.8748C18.4222 4.37995 17.5778 4.37995 17.0122 4.8748L6.51224 14.0623C6.18672 14.3471 6 14.7586 6 15.1912V28.4998C6 29.3283 6.67157 29.9998 7.5 29.9998H13.5C14.3284 29.9998 15 29.3283 15 28.4998V22.4998C15 21.6714 15.6716 20.9998 16.5 20.9998H19.5C20.3284 20.9998 21 21.6714 21 22.4998V28.4998C21 29.3283 21.6716 29.9998 22.5 29.9998H28.5C29.3284 29.9998 30 29.3283 30 28.4998V15.1912C30 14.7586 29.8133 14.3471 29.4878 14.0623Z" stroke="#D6D6D6" stroke-width="3" stroke-linecap="round" stroke-linejoin="round"/>
</svg>
