<svg width="20" height="18" viewBox="0 0 20 18" fill="none" xmlns="http://www.w3.org/2000/svg">
<g clip-path="url(#clip0_3_78)">
<path d="M9.65723 0C7.10037 0 6.77884 0.01125 5.77424 0.054C4.76963 0.099 4.08537 0.24975 3.4859 0.4725C2.8571 0.698421 2.28754 1.0528 1.81705 1.51088C1.3378 1.96053 0.966851 2.50452 0.73 3.105C0.496809 3.6765 0.337814 4.33125 0.291883 5.2875C0.247129 6.24937 0.235352 6.55538 0.235352 9.00113C0.235352 11.4446 0.247129 11.7506 0.291883 12.7103C0.338992 13.6688 0.496809 14.3224 0.73 14.895C0.971436 15.4867 1.29296 15.9885 1.81705 16.4891C2.33996 16.9897 2.86523 17.298 3.48472 17.5275C4.08537 17.7502 4.76845 17.9021 5.77188 17.946C6.77767 17.9888 7.09801 18 9.65723 18C12.2164 18 12.5356 17.9888 13.5414 17.946C14.5436 17.901 15.2303 17.7502 15.8297 17.5275C16.4581 17.3015 17.0273 16.9471 17.4974 16.4891C18.0215 15.9885 18.343 15.4867 18.5845 14.895C18.8165 14.3224 18.9755 13.6688 19.0226 12.7103C19.0673 11.7506 19.0791 11.4446 19.0791 9C19.0791 6.55538 19.0673 6.24938 19.0226 5.28863C18.9755 4.33125 18.8165 3.6765 18.5845 3.105C18.3476 2.5045 17.9767 1.96051 17.4974 1.51088C17.0271 1.05264 16.4575 0.698226 15.8286 0.4725C15.2279 0.24975 14.5425 0.097875 13.5402 0.054C12.5344 0.01125 12.2153 0 9.65487 0H9.6584H9.65723ZM8.81279 1.62225H9.6584C12.174 1.62225 12.472 1.63013 13.4648 1.674C14.3835 1.71338 14.8828 1.86075 15.215 1.98338C15.6543 2.1465 15.9687 2.34225 16.2985 2.65725C16.6282 2.97225 16.832 3.2715 17.0028 3.69225C17.1323 4.00838 17.2854 4.48538 17.3266 5.36287C17.3726 6.31125 17.382 6.59588 17.382 8.99775C17.382 11.3996 17.3726 11.6854 17.3266 12.6337C17.2854 13.5112 17.1311 13.9871 17.0028 14.3044C16.8517 14.6952 16.6106 15.0485 16.2973 15.3383C15.9675 15.6532 15.6543 15.8479 15.2138 16.011C14.884 16.1348 14.3847 16.281 13.4648 16.3215C12.472 16.3643 12.174 16.3744 9.6584 16.3744C7.14276 16.3744 6.84362 16.3643 5.85079 16.3215C4.93216 16.281 4.43397 16.1348 4.10185 16.011C3.69259 15.8669 3.32234 15.637 3.01834 15.3383C2.70477 15.048 2.4633 14.6944 2.3117 14.3032C2.18332 13.9871 2.02904 13.5101 1.98782 12.6326C1.94307 11.6842 1.93364 11.3996 1.93364 8.9955C1.93364 6.5925 1.94307 6.309 1.98782 5.36062C2.03022 4.48312 2.18332 4.00612 2.31288 3.68887C2.48365 3.26925 2.68857 2.96887 3.01834 2.65387C3.3481 2.33888 3.66138 2.14425 4.10185 1.98112C4.43397 1.85738 4.93216 1.71113 5.85079 1.67062C6.71996 1.63238 7.05679 1.62113 8.81279 1.62V1.62225ZM14.6873 3.11625C14.5389 3.11625 14.3918 3.14419 14.2547 3.19846C14.1175 3.25274 13.9928 3.33229 13.8879 3.43257C13.7829 3.53286 13.6996 3.65192 13.6428 3.78295C13.5859 3.91398 13.5567 4.05442 13.5567 4.19625C13.5567 4.33808 13.5859 4.47852 13.6428 4.60955C13.6996 4.74058 13.7829 4.85964 13.8879 4.95993C13.9928 5.06021 14.1175 5.13976 14.2547 5.19404C14.3918 5.24831 14.5389 5.27625 14.6873 5.27625C14.9872 5.27625 15.2748 5.16246 15.4868 4.95993C15.6988 4.75739 15.818 4.48268 15.818 4.19625C15.818 3.90982 15.6988 3.63511 15.4868 3.43257C15.2748 3.23004 14.9872 3.11625 14.6873 3.11625ZM9.6584 4.3785C9.01662 4.36894 8.37926 4.48142 7.78343 4.70941C7.18759 4.9374 6.64519 5.27633 6.1878 5.70648C5.73041 6.13662 5.36717 6.64939 5.11923 7.21492C4.87129 7.78045 4.7436 8.38744 4.7436 9.00056C4.7436 9.61368 4.87129 10.2207 5.11923 10.7862C5.36717 11.3517 5.73041 11.8645 6.1878 12.2946C6.64519 12.7248 7.18759 13.0637 7.78343 13.2917C8.37926 13.5197 9.01662 13.6322 9.6584 13.6226C10.9286 13.6037 12.1401 13.1084 13.0314 12.2437C13.9227 11.3789 14.4222 10.2141 14.4222 9.00056C14.4222 7.78706 13.9227 6.62221 13.0314 5.75747C12.1401 4.89272 10.9286 4.39743 9.6584 4.3785ZM9.6584 5.99963C10.4915 5.99963 11.2904 6.31573 11.8794 6.87841C12.4685 7.44109 12.7994 8.20425 12.7994 9C12.7994 9.79575 12.4685 10.5589 11.8794 11.1216C11.2904 11.6843 10.4915 12.0004 9.6584 12.0004C8.82536 12.0004 8.02642 11.6843 7.43737 11.1216C6.84831 10.5589 6.51739 9.79575 6.51739 9C6.51739 8.20425 6.84831 7.44109 7.43737 6.87841C8.02642 6.31573 8.82536 5.99963 9.6584 5.99963Z" fill="#D8E6EC"/>
</g>
<defs>
<clipPath id="clip0_3_78">
<rect width="18.8438" height="18" fill="white" transform="translate(0.235352)"/>
</clipPath>
</defs>
</svg>
