<svg width="72" height="69" viewBox="0 0 72 69" fill="none" xmlns="http://www.w3.org/2000/svg">
<g opacity="0.9" clip-path="url(#clip0_3_428)">
<path d="M35.6256 16.1714L41.4556 26.3446C42.1126 26.3327 42.7745 26.3271 43.4413 26.3277C45.1494 26.3277 46.8319 26.3655 48.4888 26.4409L35.6256 4L21.4912 28.6594C23.946 28.0946 26.5496 27.6231 29.2763 27.2548L35.6256 16.1714ZM25.1591 26.0042L35.6256 7.74015L45.2112 24.4646C44.6199 24.4547 44.0286 24.4517 43.4373 24.4517H42.5179L37.2319 15.2284L35.6217 12.4193L34.0105 15.2284L28.1164 25.5267C27.1185 25.6703 26.1327 25.8295 25.1591 26.0042Z" fill="#F5F5F5"/>
<path d="M26.9577 60C19.6653 56.7731 15.212 52.4562 15.212 47.7096C15.212 46.1303 15.7048 44.5997 16.6331 43.1386H58.0597L50.5121 29.9726C53.3837 29.7324 56.3568 29.6054 59.4019 29.6054C63.3581 29.6014 67.3114 29.8211 71.2432 30.2635C71.0264 30.193 70.8027 30.1255 70.5819 30.057C70.8027 30.1255 71.0264 30.193 71.2432 30.2635C71.4964 30.2922 71.7477 30.321 71.999 30.3518C71.3348 30.1824 70.6588 30.0206 69.9709 29.8664C63.8177 28.4847 56.7372 27.6936 49.2014 27.6827H49.0674C47.3514 27.6827 45.6617 27.7224 43.9982 27.8018C43.4444 27.8286 42.8925 27.8594 42.3456 27.8941C37.0951 28.2256 32.1599 28.9403 27.7185 29.9657C27.3348 30.055 26.9538 30.1467 26.5753 30.2406C24.0998 30.8447 21.6643 31.6042 19.283 32.5147C11.0978 35.6791 6.00195 40.1369 6.00195 45.0752C5.99998 51.414 14.402 56.9617 26.9577 60ZM43.9756 30.7369L47.5942 37.0499H23.6761C28.7433 34.2111 35.7835 31.9896 43.9756 30.7369Z" fill="#F5F5F5"/>
</g>
<circle cx="34.5" cy="34.5" r="33" stroke="#D8E6EC" stroke-width="3"/>
<defs>
<clipPath id="clip0_3_428">
<rect width="66" height="56" fill="white" transform="translate(6 4)"/>
</clipPath>
</defs>
</svg>
