<svg width="32" height="32" viewBox="0 0 32 32" fill="none" xmlns="http://www.w3.org/2000/svg">
<path d="M4.00017 28C3.26683 28 2.63883 27.7386 2.11616 27.216C1.5935 26.6933 1.33261 26.0658 1.3335 25.3333L1.3335 9.33331C1.3335 8.59998 1.59483 7.97198 2.1175 7.44931C2.64017 6.92664 3.26772 6.66576 4.00017 6.66665L8.20017 6.66665L10.6668 3.99998L18.6668 3.99998L18.6668 6.66665L11.8335 6.66665L9.40017 9.33331L4.00017 9.33331L4.00017 25.3333L25.3335 25.3333L25.3335 13.3333L28.0002 13.3333L28.0002 25.3333C28.0002 26.0666 27.7388 26.6946 27.2162 27.2173C26.6935 27.74 26.0659 28.0009 25.3335 28L4.00017 28ZM25.3335 9.33331L25.3335 6.66665L22.6668 6.66665L22.6668 3.99998L25.3335 3.99998L25.3335 1.33331L28.0002 1.33331L28.0002 3.99998L30.6668 3.99998L30.6668 6.66665L28.0002 6.66665L28.0002 9.33331L25.3335 9.33331ZM14.6668 23.3333C16.3335 23.3333 17.7504 22.7498 18.9175 21.5826C20.0846 20.4155 20.6677 18.9991 20.6668 17.3333C20.6668 15.6666 20.0833 14.2498 18.9162 13.0826C17.7491 11.9155 16.3326 11.3324 14.6668 11.3333C13.0002 11.3333 11.5833 11.9169 10.4162 13.084C9.24906 14.2511 8.66594 15.6675 8.66683 17.3333C8.66683 19 9.25039 20.4169 10.4175 21.584C11.5846 22.7511 13.0011 23.3342 14.6668 23.3333ZM14.6668 20.6666C13.7335 20.6666 12.9446 20.3444 12.3002 19.7C11.6557 19.0555 11.3335 18.2666 11.3335 17.3333C11.3335 16.4 11.6557 15.6111 12.3002 14.9666C12.9446 14.3222 13.7335 14 14.6668 14C15.6002 14 16.3891 14.3222 17.0335 14.9666C17.6779 15.6111 18.0002 16.4 18.0002 17.3333C18.0002 18.2666 17.6779 19.0555 17.0335 19.7C16.3891 20.3444 15.6002 20.6666 14.6668 20.6666Z" fill="#D9D9D9"/>
</svg>
