<svg width="32" height="24" viewBox="0 0 32 24" fill="none" xmlns="http://www.w3.org/2000/svg">
<path fill-rule="evenodd" clip-rule="evenodd" d="M7.74411 19.7572C7.41952 19.4357 7.41729 18.9145 7.74634 18.5929L12.6118 13.8283L12.6977 13.7549C13.0266 13.5103 13.4967 13.5358 13.7952 13.8316C13.957 13.9918 14.0395 14.2025 14.0395 14.4121C14.0395 14.6228 13.957 14.8345 13.793 14.9948L8.92756 19.7605L8.84161 19.8339C8.51274 20.0785 8.04267 20.0529 7.74411 19.7572ZM7.67086 5.32166C7.41979 4.99896 7.44646 4.53642 7.744 4.24169C8.0697 3.92017 8.59952 3.91907 8.92745 4.24059L16.2535 11.4172L16.3287 11.5013C16.4427 11.6477 16.5 11.8234 16.5 11.9999C16.5 12.2095 16.4175 12.4202 16.2557 12.5804C15.93 12.903 15.4002 12.9041 15.0723 12.5826L7.74623 5.40597L7.67086 5.32166Z" fill="white"/>
<path fill-rule="evenodd" clip-rule="evenodd" d="M15.7441 4.24279C15.4195 4.56431 15.4173 5.08555 15.7463 5.40707L20.6118 10.1717L20.6977 10.2451C21.0266 10.4897 21.4967 10.4642 21.7952 10.1684C21.957 10.0082 22.0395 9.79753 22.0395 9.58794C22.0395 9.37725 21.957 9.16546 21.793 9.00525L16.9276 4.2395L16.8416 4.16609C16.5127 3.92149 16.0427 3.94706 15.7441 4.24279ZM15.6709 18.6783C15.4198 19.001 15.4465 19.4636 15.744 19.7583C16.0697 20.0798 16.5995 20.0809 16.9275 19.7594L24.2535 12.5828L24.3287 12.4987C24.4427 12.3523 24.5 12.1766 24.5 12.0001C24.5 11.7905 24.4175 11.5798 24.2557 11.4196C23.93 11.097 23.4002 11.0959 23.0723 11.4174L15.7462 18.594L15.6709 18.6783Z" fill="white"/>
</svg>
