<svg width="21" height="19" viewBox="0 0 21 19" fill="none" xmlns="http://www.w3.org/2000/svg">
<path d="M18.6679 0.997002C18.4272 1.01452 18.1909 1.071 17.9682 1.16425H17.9652C17.7514 1.249 16.7352 1.6765 15.1902 2.3245L9.6537 4.65625C5.68095 6.32875 1.7757 7.97575 1.7757 7.97575L1.8222 7.95775C1.8222 7.95775 1.55295 8.04625 1.2717 8.239C1.09794 8.34957 0.948426 8.49424 0.832195 8.66425C0.694195 8.86675 0.583195 9.1765 0.624445 9.49675C0.691945 10.0383 1.04295 10.363 1.29495 10.5423C1.54995 10.7238 1.79295 10.8085 1.79295 10.8085H1.79895L5.4612 12.0423C5.62545 12.5695 6.5772 15.6985 6.80595 16.4193C6.94095 16.8498 7.0722 17.119 7.23645 17.3245C7.31595 17.4295 7.40895 17.5173 7.5207 17.5878C7.57879 17.6215 7.64073 17.6482 7.7052 17.6673L7.6677 17.6583C7.67895 17.6613 7.68795 17.6703 7.6962 17.6733C7.7262 17.6815 7.74645 17.6845 7.7847 17.6905C8.36445 17.866 8.8302 17.506 8.8302 17.506L8.85645 17.485L11.0187 15.5163L14.6427 18.2965L14.7252 18.3318C15.4804 18.6633 16.2454 18.4788 16.6497 18.1533C17.0569 17.8255 17.2152 17.4063 17.2152 17.4063L17.2414 17.3388L20.0419 2.992C20.1214 2.638 20.1417 2.3065 20.0539 1.98475C19.9634 1.65912 19.7545 1.37906 19.4682 1.1995C19.2278 1.05334 18.949 0.982788 18.6679 0.997002ZM18.5922 2.5345C18.5892 2.58175 18.5982 2.5765 18.5772 2.66725V2.6755L15.8029 16.873C15.7909 16.8933 15.7707 16.9375 15.7152 16.9818C15.6567 17.0283 15.6102 17.0575 15.3664 16.9608L10.9339 13.5625L8.25645 16.003L8.81895 12.4105L16.0609 5.6605C16.3594 5.383 16.2597 5.3245 16.2597 5.3245C16.2807 4.984 15.8089 5.22475 15.8089 5.22475L6.67695 10.882L6.67395 10.867L2.29695 9.39325V9.39025L2.2857 9.388C2.29337 9.38545 2.30088 9.38245 2.3082 9.379L2.3322 9.367L2.35545 9.35875C2.35545 9.35875 6.2637 7.71175 10.2364 6.03925C12.2254 5.2015 14.2294 4.35775 15.7707 3.70675C16.6848 3.322 17.5998 2.9395 18.5157 2.55925C18.5772 2.53525 18.5479 2.5345 18.5922 2.5345Z" fill="#D8E6EC"/>
</svg>
