<svg width="23" height="18" viewBox="0 0 23 18" fill="none" xmlns="http://www.w3.org/2000/svg">
<path d="M14.9399 10.2007C14.6461 9.95255 14.316 9.7321 13.9565 9.54384C15.4061 8.66919 16.4221 7.42915 16.8312 6.03519C16.8619 5.93432 16.8667 5.82969 16.8453 5.72736C16.8239 5.62502 16.7768 5.52701 16.7066 5.43899C16.6364 5.35096 16.5445 5.27466 16.4363 5.21451C16.3281 5.15435 16.2057 5.11152 16.0762 5.0885C15.9467 5.06548 15.8126 5.06273 15.6817 5.08039C15.5508 5.09806 15.4256 5.1358 15.3135 5.19142C15.2014 5.24705 15.1045 5.31947 15.0285 5.40449C14.9525 5.48951 14.8988 5.58545 14.8705 5.68676C14.6802 6.33893 14.3099 6.95086 13.7855 7.47986C13.2611 8.00886 12.5951 8.4422 11.834 8.74967V5.86255C11.8276 5.8049 11.8128 5.74802 11.7897 5.69304C11.7829 5.64761 11.7712 5.60271 11.7546 5.55884C11.7117 5.48716 11.6551 5.42101 11.5866 5.36266C11.5685 5.34696 11.5595 5.32499 11.5404 5.30929C11.4668 5.25624 11.3834 5.21207 11.293 5.17824C11.2669 5.16725 11.2478 5.1492 11.2207 5.14057C11.1438 5.12048 11.0641 5.10757 10.9834 5.10212C10.9334 5.09075 10.8822 5.08261 10.8305 5.07779L10.173 5.07622H10.1699C9.93437 5.07492 9.70577 5.13854 9.52441 5.25587C9.34304 5.37321 9.22054 5.53673 9.17849 5.71763C9.13643 5.89854 9.17752 6.08523 9.29451 6.24481C9.4115 6.4044 9.59689 6.52664 9.81802 6.59002V10.4275C8.22466 9.13666 7.16952 7.49947 6.79156 5.73149C6.74702 5.52627 6.59986 5.34327 6.38245 5.22274C6.16504 5.10221 5.89518 5.05402 5.63225 5.08877C5.36932 5.12353 5.13484 5.23839 4.98041 5.40808C4.82598 5.57776 4.76424 5.78838 4.80877 5.9936C5.3963 8.72669 7.34896 11.1663 10.2383 12.777C10.2796 12.7962 10.3226 12.813 10.367 12.8273C10.402 12.8432 10.4383 12.8573 10.4756 12.8696C10.5876 12.9046 10.7069 12.9235 10.8275 12.9254C10.9755 12.9239 11.1212 12.8966 11.2538 12.8453C11.2639 12.8414 11.2749 12.8437 11.285 12.8398C11.3739 12.8035 11.4552 12.7569 11.5263 12.7017C11.5414 12.6907 11.5504 12.6782 11.5645 12.6664C11.6294 12.6108 11.6836 12.5482 11.7254 12.4804C11.7392 12.4581 11.7517 12.4354 11.7626 12.4121C11.8068 12.3257 11.8306 12.2337 11.833 12.1406V10.4722C12.4564 10.6148 13.0182 10.8875 13.4578 11.2609L15.1138 12.6711C15.2941 12.8245 15.5451 12.9157 15.8115 12.9247C16.0779 12.9337 16.338 12.8597 16.5346 12.719C16.7311 12.5783 16.848 12.3824 16.8595 12.1745C16.871 11.9665 16.7762 11.7635 16.5959 11.6101L14.9399 10.2007ZM14.2652 0.367676H8.09565C1.90497 0.367676 0.115234 1.76297 0.115234 6.58845V11.4037C0.115234 16.2355 1.90296 17.6323 8.0856 17.6323H14.2552C20.4458 17.6323 22.2356 16.237 22.2356 11.4116V6.59629C22.2356 1.76454 20.4479 0.367676 14.2652 0.367676ZM20.2246 11.4116C20.2246 15.3667 19.3318 16.0628 14.2542 16.0628H8.0866C3.01803 16.0628 2.12617 15.366 2.12617 11.4029V6.58923C2.12617 2.63327 3.01903 1.93719 8.09666 1.93719H14.2652C19.3328 1.93719 20.2246 2.63405 20.2246 6.59708V11.4116Z" fill="#D8E6EC"/>
</svg>
