<svg width="30" height="30" viewBox="0 0 30 30" fill="none" xmlns="http://www.w3.org/2000/svg">
<path d="M9.375 15C9.375 15.85 9.45 16.675 9.55 17.5H5.325C5.125 16.7 5 15.8625 5 15C5 14.5375 5.0375 14.0875 5.1 13.65C4.2375 13.525 3.4375 13.25 2.7 12.85C2.575 13.55 2.5 14.2625 2.5 15C2.5 21.875 8.125 27.5 15 27.5C21.9125 27.5 27.5 21.875 27.5 15C27.5 8.125 21.875 2.5 15 2.5C14.2625 2.5 13.55 2.575 12.85 2.7C13.4437 3.78884 13.7533 5.00982 13.75 6.25C13.75 6.6125 13.7125 6.9625 13.6625 7.3125C14.0625 6.525 14.5 5.7625 15 5.05C16.0375 6.55 16.875 8.2125 17.3875 10H12.7375C11.9868 11.3046 10.8579 12.3506 9.5 13C9.425 13.6625 9.375 14.325 9.375 15ZM15 24.9625C13.9625 23.4625 13.125 21.7875 12.6125 20H17.3875C16.875 21.7875 16.0375 23.4625 15 24.9625ZM24.675 12.5C24.875 13.3 25 14.1375 25 15C25 15.8625 24.875 16.7 24.675 17.5H20.45C20.55 16.675 20.625 15.85 20.625 15C20.625 14.15 20.55 13.325 20.45 12.5H24.675ZM23.65 10H20C19.5625 8.4375 19 6.9375 18.25 5.55C20.5267 6.33542 22.4439 7.91535 23.65 10ZM20 20H23.65C22.4514 22.091 20.5315 23.6731 18.25 24.45C19 23.0625 19.5625 21.5625 20 20ZM12.075 12.5H17.925C18.05 13.325 18.125 14.15 18.125 15C18.125 15.85 18.05 16.6875 17.925 17.5H12.075C11.9625 16.6875 11.875 15.85 11.875 15C11.875 14.15 11.9625 13.325 12.075 12.5ZM11.7625 24.45C9.4625 23.6625 7.55 22.075 6.35 20H10.0375C10.4287 21.5482 11.008 23.0426 11.7625 24.45ZM1.25 7.5V5H5V1.25H7.5V5H11.25V7.5H7.5V11.25H5V7.5H1.25Z" fill="#D9D9D9"/>
</svg>
