<svg width="25" height="18" viewBox="0 0 25 18" fill="none" xmlns="http://www.w3.org/2000/svg">
<path d="M24.6273 8.92329C24.6273 8.86301 24.6273 8.79451 24.6245 8.71505C24.6218 8.49311 24.6163 8.24378 24.6108 7.978C24.5889 7.21356 24.5506 6.45185 24.4903 5.73399C24.4081 4.74487 24.2876 3.92014 24.1232 3.30091C23.9497 2.6547 23.6097 2.06533 23.1371 1.59173C22.6644 1.11812 22.0758 0.776864 21.43 0.602066C20.6546 0.39383 19.1368 0.265052 16.9998 0.185594C15.9834 0.147235 14.8957 0.122575 13.808 0.108875C13.4272 0.103395 13.0737 0.100656 12.7559 0.0979156H11.9504C11.6326 0.100656 11.2792 0.103395 10.8984 0.108875C9.8107 0.122575 8.72302 0.147235 7.70657 0.185594C5.56957 0.267792 4.049 0.39657 3.27639 0.602066C2.63036 0.776435 2.0415 1.11755 1.56883 1.59122C1.09615 2.06489 0.756259 2.65448 0.583216 3.30091C0.416091 3.92014 0.298282 4.74487 0.216089 5.73399C0.155815 6.45185 0.117458 7.21356 0.09554 7.978C0.0873208 8.24378 0.084581 8.49311 0.0818413 8.71505C0.0818413 8.79451 0.0791016 8.86301 0.0791016 8.92329V9.07672C0.0791016 9.137 0.0791015 9.2055 0.0818413 9.28496C0.084581 9.5069 0.0900605 9.75623 0.09554 10.022C0.117458 10.7864 0.155815 11.5482 0.216089 12.266C0.298282 13.2551 0.418831 14.0799 0.583216 14.6991C0.933904 16.0115 1.96405 17.0472 3.27639 17.3979C4.049 17.6062 5.56957 17.735 7.70657 17.8144C8.72302 17.8528 9.8107 17.8774 10.8984 17.8911C11.2792 17.8966 11.6326 17.8994 11.9504 17.9021H12.7559C13.0737 17.8994 13.4272 17.8966 13.808 17.8911C14.8957 17.8774 15.9834 17.8528 16.9998 17.8144C19.1368 17.7322 20.6574 17.6034 21.43 17.3979C22.7423 17.0472 23.7725 16.0143 24.1232 14.6991C24.2903 14.0799 24.4081 13.2551 24.4903 12.266C24.5506 11.5482 24.5889 10.7864 24.6108 10.022C24.6191 9.75623 24.6218 9.5069 24.6245 9.28496C24.6245 9.2055 24.6273 9.137 24.6273 9.07672V8.92329ZM22.6547 9.06576C22.6547 9.1233 22.6547 9.18632 22.6519 9.2603C22.6492 9.47402 22.6437 9.70965 22.6382 9.96447C22.619 10.6933 22.5807 11.4221 22.5232 12.0989C22.4492 12.9811 22.3451 13.7045 22.2163 14.1895C22.0464 14.8224 21.5478 15.3238 20.9177 15.4909C20.3423 15.6444 18.893 15.7677 16.9231 15.8417C15.9258 15.88 14.8518 15.9047 13.7806 15.9184C13.4053 15.9239 13.0573 15.9266 12.745 15.9266H11.9614L10.9258 15.9184C9.85454 15.9047 8.7833 15.88 7.78329 15.8417C5.8134 15.7649 4.36134 15.6444 3.78873 15.4909C3.15858 15.3211 2.65995 14.8224 2.49008 14.1895C2.36132 13.7045 2.25721 12.9811 2.18323 12.0989C2.1257 11.4221 2.09008 10.6933 2.06816 9.96447C2.05994 9.70965 2.0572 9.47128 2.05446 9.2603C2.05446 9.18632 2.05172 9.12056 2.05172 9.06576V8.93425C2.05172 8.87671 2.05172 8.81369 2.05446 8.73971C2.0572 8.52599 2.06268 8.29036 2.06816 8.03554C2.08734 7.30672 2.1257 6.57789 2.18323 5.90112C2.25721 5.01886 2.36132 4.29552 2.49008 3.81054C2.65995 3.17762 3.15858 2.67621 3.78873 2.50907C4.36407 2.35563 5.8134 2.23233 7.78329 2.15836C8.78056 2.12 9.85454 2.09534 10.9258 2.08164C11.3011 2.07616 11.6491 2.07342 11.9614 2.07342H12.745L13.7806 2.08164C14.8518 2.09534 15.9231 2.12 16.9231 2.15836C18.893 2.23507 20.3451 2.35563 20.9177 2.50907C21.5478 2.67895 22.0464 3.17762 22.2163 3.81054C22.3451 4.29552 22.4492 5.01886 22.5232 5.90112C22.5807 6.57789 22.6163 7.30672 22.6382 8.03554C22.6464 8.29036 22.6492 8.52873 22.6519 8.73971C22.6519 8.81369 22.6547 8.87945 22.6547 8.93425V9.06576ZM9.91481 12.6715L16.271 8.9726L9.91481 5.32847V12.6715Z" fill="#D8E6EC"/>
</svg>
